<svg xmlns="http://www.w3.org/2000/svg" viewBox="0 0 405.58 42.69"><defs><style>.a{fill:#3c3c3b;}.b,.c,.d{fill:none;stroke-width:9.74px;}.b{stroke:#9aa216;}.c{stroke:#589ac0;}.d{stroke:#b51f1f;}</style></defs><title>Ресурс 10</title><path class="a" d="M24.08,50H11.26L0,10H9.22l8.45,31.81L26.12,10h9.22Z" transform="translate(0 -8.72)"/><path class="a" d="M39.54,50V10h9V50Z" transform="translate(0 -8.72)"/><path class="a" d="M68.29,50.6A32.83,32.83,0,0,1,55.41,48l1.5-7A37.88,37.88,0,0,0,68.41,43c4.61,0,5.51-.9,5.51-4.26,0-3.6-.18-4-6.71-5.46-9.64-2.1-11.08-4-11.08-12.66,0-8,2.81-11.16,13.78-11.16A58,58,0,0,1,82,10.75l-.9,7.56A60.85,60.85,0,0,0,70,17.17c-4,0-4.91.72-4.91,3.66,0,3.84.18,3.9,6.47,5.4,10.78,2.58,11.32,4.68,11.32,12.54S80.33,50.6,68.29,50.6Z" transform="translate(0 -8.72)"/><path class="a" d="M89.5,50V10h9V50Z" transform="translate(0 -8.72)"/><path class="a" d="M136.59,38.35c0,6.06-4.19,12.24-15.46,12.24s-15.46-6.18-15.46-12.24V21.67c0-6.06,4.19-12.24,15.46-12.24s15.46,6.18,15.46,12.24Zm-9-15.9c0-3.12-2-5-6.47-5s-6.47,1.92-6.47,5V37.57c0,3.12,2,5,6.47,5s6.47-1.92,6.47-5Z" transform="translate(0 -8.72)"/><path class="a" d="M152,23.71V50h-8.57V10h11l13.12,27.55V10h8.57V50H165.1Z" transform="translate(0 -8.72)"/><path class="a" d="M205.9,42.61h17.67V50H195.66V42.67l17.55-25.27H196.43V10h26.84v7.38Z" transform="translate(0 -8.72)"/><path class="a" d="M230.46,50V10h25.1v8H239.45v7.32H254.3v8H239.45V42h16.12v8Z" transform="translate(0 -8.72)"/><path class="a" d="M276.71,37.57h-5.27V50h-9V10H279c9.7,0,13.3,3.84,13.3,11.34v4.92c0,5-1.8,8.34-5.81,10L296.18,50H285.52Zm6.65-15.36c0-3-1.14-4.2-4.79-4.2h-7.13V29.77h7.13c3.83,0,4.79-1.38,4.79-4.38Z" transform="translate(0 -8.72)"/><ellipse class="b" cx="384.26" cy="21.35" rx="16.45" ry="16.48"/><ellipse class="c" cx="351.29" cy="21.35" rx="16.45" ry="16.48"/><ellipse class="d" cx="318.39" cy="21.35" rx="16.45" ry="16.48"/></svg>